<svg width="1228" height="669" viewBox="0 0 1228 669" fill="none" xmlns="http://www.w3.org/2000/svg">
    <path d="M670.807 641V568.273H695.381C701.086 568.273 705.75 569.303 709.372 571.362C713.018 573.398 715.717 576.156 717.469 579.636C719.221 583.116 720.097 586.999 720.097 591.284C720.097 595.569 719.221 599.464 717.469 602.967C715.741 606.471 713.065 609.265 709.443 611.348C705.821 613.408 701.181 614.438 695.523 614.438H677.909V606.625H695.239C699.145 606.625 702.282 605.95 704.649 604.601C707.017 603.251 708.733 601.429 709.798 599.132C710.887 596.812 711.432 594.196 711.432 591.284C711.432 588.372 710.887 585.768 709.798 583.472C708.733 581.175 707.005 579.376 704.614 578.074C702.223 576.748 699.05 576.085 695.097 576.085H679.614V641H670.807ZM734.283 641V568.273H778.175V576.085H743.09V600.659H775.903V608.472H743.09V633.188H778.744V641H734.283ZM816.492 641H794.049V568.273H817.487C824.541 568.273 830.578 569.729 835.597 572.641C840.616 575.529 844.463 579.684 847.138 585.105C849.814 590.503 851.151 596.966 851.151 604.494C851.151 612.07 849.802 618.592 847.103 624.061C844.404 629.506 840.474 633.696 835.313 636.632C830.152 639.544 823.879 641 816.492 641ZM802.856 633.188H815.924C821.937 633.188 826.921 632.027 830.874 629.707C834.828 627.387 837.775 624.085 839.717 619.8C841.658 615.515 842.629 610.413 842.629 604.494C842.629 598.623 841.67 593.569 839.752 589.331C837.835 585.07 834.97 581.803 831.158 579.53C827.347 577.233 822.6 576.085 816.918 576.085H802.856V633.188ZM865.924 641V568.273H890.498C896.18 568.273 900.844 569.243 904.489 571.185C908.135 573.102 910.834 575.742 912.586 579.104C914.338 582.465 915.214 586.289 915.214 590.574C915.214 594.859 914.338 598.659 912.586 601.973C910.834 605.287 908.147 607.892 904.525 609.786C900.903 611.656 896.274 612.591 890.64 612.591H870.754V604.636H890.356C894.238 604.636 897.363 604.068 899.731 602.932C902.122 601.795 903.85 600.186 904.915 598.102C906.004 595.995 906.549 593.486 906.549 590.574C906.549 587.662 906.004 585.117 904.915 582.939C903.826 580.761 902.086 579.08 899.695 577.896C897.304 576.689 894.144 576.085 890.214 576.085H874.731V641H865.924ZM900.157 608.33L918.055 641H907.827L890.214 608.33H900.157ZM932.872 641H923.639L950.343 568.273H959.434L986.139 641H976.906L955.173 579.778H954.605L932.872 641ZM936.281 612.591H973.497V620.403H936.281V612.591ZM997.467 641V568.273H1006.27V633.188H1040.08V641H997.467ZM1053.72 641V568.273H1079.14C1084.21 568.273 1088.39 569.149 1091.68 570.901C1094.97 572.629 1097.42 574.961 1099.03 577.896C1100.64 580.808 1101.44 584.04 1101.44 587.591C1101.44 590.716 1100.89 593.296 1099.78 595.332C1098.69 597.368 1097.24 598.978 1095.44 600.162C1093.67 601.346 1091.74 602.222 1089.65 602.79V603.5C1091.88 603.642 1094.12 604.423 1096.37 605.844C1098.62 607.264 1100.5 609.3 1102.01 611.952C1103.53 614.603 1104.29 617.847 1104.29 621.682C1104.29 625.328 1103.46 628.607 1101.8 631.518C1100.14 634.43 1097.53 636.739 1093.95 638.443C1090.38 640.148 1085.72 641 1080 641H1053.72ZM1062.52 633.188H1080C1085.75 633.188 1089.83 632.075 1092.25 629.849C1094.69 627.6 1095.9 624.878 1095.9 621.682C1095.9 619.22 1095.28 616.947 1094.02 614.864C1092.77 612.757 1090.98 611.076 1088.66 609.821C1086.34 608.543 1083.59 607.903 1080.42 607.903H1062.52V633.188ZM1062.52 600.233H1078.86C1081.51 600.233 1083.9 599.712 1086.03 598.67C1088.19 597.629 1089.89 596.161 1091.15 594.267C1092.42 592.373 1093.06 590.148 1093.06 587.591C1093.06 584.395 1091.95 581.684 1089.73 579.459C1087.5 577.21 1083.97 576.085 1079.14 576.085H1062.52V600.233ZM1118.76 641V568.273H1162.65V576.085H1127.56V600.659H1160.38V608.472H1127.56V633.188H1163.22V641H1118.76ZM1218.29 586.455C1217.87 582.856 1216.14 580.062 1213.11 578.074C1210.08 576.085 1206.36 575.091 1201.96 575.091C1198.74 575.091 1195.92 575.612 1193.51 576.653C1191.12 577.695 1189.25 579.127 1187.9 580.95C1186.57 582.773 1185.91 584.845 1185.91 587.165C1185.91 589.106 1186.37 590.775 1187.29 592.172C1188.24 593.545 1189.45 594.693 1190.92 595.616C1192.38 596.516 1193.92 597.262 1195.53 597.854C1197.14 598.422 1198.62 598.884 1199.97 599.239L1207.36 601.227C1209.25 601.724 1211.36 602.411 1213.68 603.287C1216.02 604.163 1218.26 605.358 1220.39 606.874C1222.54 608.365 1224.32 610.283 1225.72 612.626C1227.11 614.97 1227.81 617.847 1227.81 621.256C1227.81 625.186 1226.78 628.737 1224.72 631.909C1222.69 635.081 1219.7 637.603 1215.77 639.473C1211.87 641.343 1207.12 642.278 1201.53 642.278C1196.32 642.278 1191.81 641.438 1188 639.757C1184.22 638.076 1181.23 635.732 1179.05 632.726C1176.9 629.719 1175.68 626.227 1175.4 622.25H1184.49C1184.72 624.996 1185.65 627.269 1187.26 629.068C1188.89 630.844 1190.95 632.17 1193.44 633.045C1195.95 633.898 1198.64 634.324 1201.53 634.324C1204.89 634.324 1207.91 633.779 1210.59 632.69C1213.26 631.578 1215.38 630.039 1216.94 628.074C1218.51 626.085 1219.29 623.765 1219.29 621.114C1219.29 618.699 1218.61 616.734 1217.26 615.219C1215.92 613.704 1214.14 612.473 1211.94 611.526C1209.74 610.579 1207.36 609.75 1204.8 609.04L1195.85 606.483C1190.17 604.849 1185.67 602.518 1182.36 599.487C1179.04 596.457 1177.39 592.491 1177.39 587.591C1177.39 583.519 1178.49 579.968 1180.69 576.938C1182.91 573.884 1185.9 571.516 1189.64 569.835C1193.4 568.131 1197.6 567.278 1202.24 567.278C1206.93 567.278 1211.1 568.119 1214.74 569.8C1218.39 571.457 1221.28 573.73 1223.41 576.618C1225.56 579.506 1226.7 582.785 1226.82 586.455H1218.29Z"
          fill="black"/>
    <path d="M679.614 374.273V447H670.807V374.273H679.614ZM754.942 374.273V447H746.419L706.789 389.898H706.078V447H697.272V374.273H705.794L745.567 431.517H746.277V374.273H754.942ZM812.337 392.455C811.911 388.856 810.183 386.062 807.153 384.074C804.122 382.085 800.406 381.091 796.002 381.091C792.782 381.091 789.965 381.612 787.55 382.653C785.159 383.695 783.289 385.127 781.94 386.95C780.614 388.773 779.951 390.845 779.951 393.165C779.951 395.106 780.413 396.775 781.336 398.172C782.283 399.545 783.49 400.693 784.958 401.616C786.426 402.516 787.965 403.262 789.575 403.854C791.184 404.422 792.664 404.884 794.013 405.239L801.4 407.227C803.294 407.724 805.401 408.411 807.721 409.287C810.065 410.163 812.302 411.358 814.433 412.874C816.587 414.365 818.362 416.283 819.759 418.626C821.156 420.97 821.854 423.847 821.854 427.256C821.854 431.186 820.825 434.737 818.765 437.909C816.729 441.081 813.746 443.603 809.816 445.473C805.91 447.343 801.163 448.278 795.576 448.278C790.368 448.278 785.858 447.438 782.046 445.757C778.258 444.076 775.275 441.732 773.097 438.726C770.943 435.719 769.724 432.227 769.44 428.25H778.531C778.767 430.996 779.691 433.269 781.3 435.068C782.934 436.844 784.994 438.17 787.479 439.045C789.989 439.898 792.688 440.324 795.576 440.324C798.938 440.324 801.956 439.779 804.631 438.69C807.307 437.578 809.425 436.039 810.988 434.074C812.55 432.085 813.332 429.765 813.332 427.114C813.332 424.699 812.657 422.734 811.308 421.219C809.958 419.704 808.183 418.473 805.981 417.526C803.779 416.579 801.4 415.75 798.843 415.04L789.894 412.483C784.212 410.849 779.714 408.518 776.4 405.487C773.085 402.457 771.428 398.491 771.428 393.591C771.428 389.519 772.529 385.968 774.731 382.938C776.956 379.884 779.939 377.516 783.68 375.835C787.444 374.131 791.646 373.278 796.286 373.278C800.974 373.278 805.14 374.119 808.786 375.8C812.432 377.457 815.32 379.73 817.451 382.618C819.605 385.506 820.742 388.785 820.86 392.455H812.337ZM832.357 382.085V374.273H886.902V382.085H864.033V447H855.226V382.085H832.357ZM909.301 374.273V447H900.494V374.273H909.301ZM922.982 382.085V374.273H977.527V382.085H954.658V447H945.851V382.085H922.982ZM1038.85 374.273H1047.65V422.426C1047.65 427.398 1046.48 431.837 1044.14 435.743C1041.82 439.625 1038.54 442.691 1034.3 444.94C1030.06 447.166 1025.09 448.278 1019.39 448.278C1013.68 448.278 1008.71 447.166 1004.47 444.94C1000.23 442.691 996.943 439.625 994.599 435.743C992.279 431.837 991.119 427.398 991.119 422.426V374.273H999.926V421.716C999.926 425.267 1000.71 428.428 1002.27 431.197C1003.83 433.944 1006.06 436.11 1008.95 437.696C1011.86 439.259 1015.34 440.04 1019.39 440.04C1023.43 440.04 1026.91 439.259 1029.83 437.696C1032.74 436.11 1034.96 433.944 1036.5 431.197C1038.07 428.428 1038.85 425.267 1038.85 421.716V374.273ZM1061.26 382.085V374.273H1115.81V382.085H1092.94V447H1084.13V382.085H1061.26Z"
          fill="#00AEEF"/>
    <path d="M418.5 457V4.5H592V457H418.5Z" stroke="black" stroke-width="5"/>
    <path d="M208 663.5V2.5H383.5V663.5H208Z" stroke="black" stroke-width="5"/>
    <path d="M173 213H3.5L8 665.5L173 662.5V213Z" stroke="black" stroke-width="5"/>
    <ellipse cx="88.5" cy="88.5" rx="84.5" ry="85.5" fill="#00AEEF"/>
    <ellipse cx="507.5" cy="578.5" rx="84.5" ry="85.5" fill="#00AEEF"/>
    <rect x="4" y="213" width="169" height="450" fill="black"/>
    <rect x="208" y="3" width="175" height="660" fill="black"/>
    <rect x="421" y="7" width="171" height="453" fill="black"/>
</svg>